<?xml version="1.0" standalone="no"?>
<!DOCTYPE svg PUBLIC "-//W3C//DTD SVG 20010904//EN"
 "http://www.w3.org/TR/2001/REC-SVG-20010904/DTD/svg10.dtd">
<svg version="1.0" xmlns="http://www.w3.org/2000/svg"
 width="512.000000pt" height="512.000000pt" viewBox="0 0 512.000000 512.000000"
 preserveAspectRatio="xMidYMid meet">

<g transform="translate(0.000000,512.000000) scale(0.100000,-0.100000)"
fill="#000000" stroke="none">
<path d="M2380 4954 c-537 -51 -997 -242 -1386 -578 -441 -380 -717 -883 -810
-1478 -25 -158 -25 -518 0 -676 74 -473 259 -879 561 -1230 382 -445 916 -731
1515 -814 123 -17 478 -16 600 1 293 40 579 131 819 259 1112 591 1578 1920
1080 3079 -376 877 -1264 1454 -2219 1441 -69 0 -141 -3 -160 -4z m381 -324
c727 -74 1364 -520 1675 -1175 274 -577 270 -1236 -10 -1810 -431 -881 -1425
-1341 -2377 -1100 -284 72 -569 214 -794 396 -431 347 -709 863 -765 1418 -53
532 113 1087 451 1506 438 543 1131 834 1820 765z"/>
<path d="M1525 3666 c-16 -8 -136 -121 -267 -252 -197 -199 -238 -246 -249
-282 -37 -126 92 -239 218 -191 15 6 105 87 198 180 94 93 173 169 177 169 3
0 77 -77 164 -171 87 -94 170 -177 185 -185 16 -8 50 -14 76 -14 90 0 153 63
153 153 0 27 -5 58 -12 70 -21 40 -479 505 -513 521 -40 19 -90 20 -130 2z"/>
<path d="M3445 3666 c-16 -8 -136 -121 -267 -252 -197 -199 -238 -246 -249
-282 -37 -126 92 -239 218 -191 15 6 105 87 198 180 94 93 173 169 177 169 3
0 77 -77 164 -171 87 -94 170 -177 185 -185 41 -21 118 -18 157 6 70 43 93
140 53 218 -25 47 -477 497 -514 511 -38 15 -85 13 -122 -3z"/>
<path d="M1535 2546 c-92 -42 -111 -117 -80 -316 42 -277 187 -528 407 -704
243 -195 558 -278 871 -231 489 74 873 470 938 969 20 157 6 218 -65 270 -39
29 -133 29 -172 0 -55 -40 -66 -67 -75 -169 -14 -163 -52 -281 -129 -398 -238
-366 -718 -474 -1087 -247 -228 140 -358 360 -382 645 -9 102 -20 129 -73 168
-34 25 -113 32 -153 13z"/>
</g>
</svg>
